<?xml version="1.0" encoding="UTF-8" standalone="no"?>
<!DOCTYPE svg PUBLIC "-//W3C//DTD SVG 1.1//EN" "http://www.w3.org/Graphics/SVG/1.1/DTD/svg11.dtd">
<svg width="1200" height="1000" xmlns="http://www.w3.org/2000/svg" xmlns:xlink="http://www.w3.org/1999/xlink">
    <title>FitClub Database Schema</title>
    <style>
        .title { font-family: Arial, sans-serif; font-size: 24px; font-weight: bold; fill: #212529; text-anchor: middle; }
        .subtitle { font-family: Arial, sans-serif; font-size: 16px; fill: #6c757d; text-anchor: middle; }
        .table { fill: #f8f9fa; stroke: #343a40; stroke-width: 2; }
        .table-auth { fill: #e3f2fd; stroke: #0d47a1; stroke-width: 2; }
        .table-core { fill: #e8f5e9; stroke: #1b5e20; stroke-width: 2; }
        .table-feature { fill: #fff3e0; stroke: #e65100; stroke-width: 2; }
        .table-join { fill: #f3e5f5; stroke: #4a148c; stroke-width: 2; }
        .table-header { fill: #dee2e6; }
        .connection { stroke: #495057; stroke-width: 1.5; marker-end: url(#arrow); }
        .text { font-family: Arial, sans-serif; font-size: 14px; fill: #212529; text-anchor: middle; }
        .table-title { font-family: Arial, sans-serif; font-size: 16px; font-weight: bold; fill: #212529; text-anchor: middle; }
        .column-text { font-family: "Courier New", monospace; font-size: 12px; fill: #212529; text-anchor: start; }
        .pk-text { font-family: "Courier New", monospace; font-size: 12px; font-weight: bold; fill: #0d47a1; text-anchor: start; }
        .fk-text { font-family: "Courier New", monospace; font-size: 12px; font-style: italic; fill: #e65100; text-anchor: start; }
        .legend-box { fill: #ffffff; stroke: #adb5bd; stroke-width: 1; }
        .legend-text { font-family: Arial, sans-serif; font-size: 12px; fill: #212529; }
        .legend-title { font-family: Arial, sans-serif; font-size: 14px; font-weight: bold; fill: #212529; }
    </style>
    
    <defs>
        <marker id="arrow" markerWidth="10" markerHeight="10" refX="9" refY="3" orient="auto" markerUnits="strokeWidth">
            <path d="M0,0 L0,6 L9,3 z" fill="#495057" />
        </marker>
    </defs>
    
    <text x="600" y="40" class="title">FitClub Database Schema</text>
    <text x="600" y="70" class="subtitle">Supabase PostgreSQL Database</text>
    
    <!-- Auth Tables -->
    <!-- Users Table (from Supabase Auth) -->
    <g transform="translate(100, 120)">
        <rect width="250" height="30" class="table-header" />
        <rect width="250" height="170" y="30" class="table-auth" />
        <text x="125" y="20" class="table-title">auth.users</text>
        <text x="10" y="50" class="pk-text">id UUID PRIMARY KEY</text>
        <text x="10" y="70" class="column-text">email VARCHAR(255) UNIQUE</text>
        <text x="10" y="90" class="column-text">encrypted_password TEXT</text>
        <text x="10" y="110" class="column-text">email_confirmed_at TIMESTAMP</text>
        <text x="10" y="130" class="column-text">last_sign_in_at TIMESTAMP</text>
        <text x="10" y="150" class="column-text">created_at TIMESTAMP</text>
        <text x="10" y="170" class="column-text">updated_at TIMESTAMP</text>
        <text x="10" y="190" class="column-text">raw_app_meta_data JSONB</text>
    </g>
    
    <!-- Core Tables -->
    <!-- Profiles Table -->
    <g transform="translate(450, 120)">
        <rect width="250" height="30" class="table-header" />
        <rect width="250" height="170" y="30" class="table-core" />
        <text x="125" y="20" class="table-title">public.profiles</text>
        <text x="10" y="50" class="pk-text">id UUID PRIMARY KEY</text>
        <text x="10" y="70" class="fk-text">user_id UUID REFERENCES auth.users</text>
        <text x="10" y="90" class="column-text">first_name VARCHAR(100)</text>
        <text x="10" y="110" class="column-text">last_name VARCHAR(100)</text>
        <text x="10" y="130" class="column-text">avatar_url TEXT</text>
        <text x="10" y="150" class="column-text">phone VARCHAR(20)</text>
        <text x="10" y="170" class="column-text">created_at TIMESTAMP</text>
        <text x="10" y="190" class="column-text">updated_at TIMESTAMP</text>
    </g>
    
    <!-- Subscription Plans Table -->
    <g transform="translate(800, 120)">
        <rect width="250" height="30" class="table-header" />
        <rect width="250" height="150" y="30" class="table-core" />
        <text x="125" y="20" class="table-title">public.subscription_plans</text>
        <text x="10" y="50" class="pk-text">id UUID PRIMARY KEY</text>
        <text x="10" y="70" class="column-text">name VARCHAR(100)</text>
        <text x="10" y="90" class="column-text">description TEXT</text>
        <text x="10" y="110" class="column-text">price DECIMAL(10,2)</text>
        <text x="10" y="130" class="column-text">duration_days INTEGER</text>
        <text x="10" y="150" class="column-text">features JSONB</text>
        <text x="10" y="170" class="column-text">created_at TIMESTAMP</text>
    </g>
    
    <!-- Subscriptions Table -->
    <g transform="translate(100, 350)">
        <rect width="250" height="30" class="table-header" />
        <rect width="250" height="170" y="30" class="table-feature" />
        <text x="125" y="20" class="table-title">public.subscriptions</text>
        <text x="10" y="50" class="pk-text">id UUID PRIMARY KEY</text>
        <text x="10" y="70" class="fk-text">profile_id UUID REFERENCES profiles</text>
        <text x="10" y="90" class="fk-text">plan_id UUID REFERENCES subscription_plans</text>
        <text x="10" y="110" class="column-text">start_date TIMESTAMP</text>
        <text x="10" y="130" class="column-text">end_date TIMESTAMP</text>
        <text x="10" y="150" class="column-text">status VARCHAR(20)</text>
        <text x="10" y="170" class="column-text">payment_id VARCHAR(100)</text>
        <text x="10" y="190" class="column-text">qr_code_url TEXT</text>
    </g>
    
    <!-- Gyms Table -->
    <g transform="translate(450, 350)">
        <rect width="250" height="30" class="table-header" />
        <rect width="250" height="190" y="30" class="table-feature" />
        <text x="125" y="20" class="table-title">public.gyms</text>
        <text x="10" y="50" class="pk-text">id UUID PRIMARY KEY</text>
        <text x="10" y="70" class="column-text">name VARCHAR(100)</text>
        <text x="10" y="90" class="column-text">description TEXT</text>
        <text x="10" y="110" class="column-text">address TEXT</text>
        <text x="10" y="130" class="column-text">city VARCHAR(100)</text>
        <text x="10" y="150" class="column-text">latitude DECIMAL(10,8)</text>
        <text x="10" y="170" class="column-text">longitude DECIMAL(11,8)</text>
        <text x="10" y="190" class="column-text">amenities JSONB</text>
        <text x="10" y="210" class="column-text">image_url TEXT</text>
    </g>
    
    <!-- Classes Table -->
    <g transform="translate(800, 350)">
        <rect width="250" height="30" class="table-header" />
        <rect width="250" height="170" y="30" class="table-feature" />
        <text x="125" y="20" class="table-title">public.classes</text>
        <text x="10" y="50" class="pk-text">id UUID PRIMARY KEY</text>
        <text x="10" y="70" class="fk-text">gym_id UUID REFERENCES gyms</text>
        <text x="10" y="90" class="column-text">name VARCHAR(100)</text>
        <text x="10" y="110" class="column-text">description TEXT</text>
        <text x="10" y="130" class="column-text">instructor VARCHAR(100)</text>
        <text x="10" y="150" class="column-text">schedule JSONB</text>
        <text x="10" y="170" class="column-text">capacity INTEGER</text>
        <text x="10" y="190" class="column-text">image_url TEXT</text>
    </g>
    
    <!-- Trainers Table -->
    <g transform="translate(100, 580)">
        <rect width="250" height="30" class="table-header" />
        <rect width="250" height="150" y="30" class="table-feature" />
        <text x="125" y="20" class="table-title">public.trainers</text>
        <text x="10" y="50" class="pk-text">id UUID PRIMARY KEY</text>
        <text x="10" y="70" class="column-text">name VARCHAR(100)</text>
        <text x="10" y="90" class="column-text">bio TEXT</text>
        <text x="10" y="110" class="column-text">specialties JSONB</text>
        <text x="10" y="130" class="column-text">years_experience INTEGER</text>
        <text x="10" y="150" class="column-text">avatar_url TEXT</text>
        <text x="10" y="170" class="column-text">contact_info JSONB</text>
    </g>
    
    <!-- Class Bookings Table -->
    <g transform="translate(450, 580)">
        <rect width="250" height="30" class="table-header" />
        <rect width="250" height="130" y="30" class="table-join" />
        <text x="125" y="20" class="table-title">public.class_bookings</text>
        <text x="10" y="50" class="pk-text">id UUID PRIMARY KEY</text>
        <text x="10" y="70" class="fk-text">profile_id UUID REFERENCES profiles</text>
        <text x="10" y="90" class="fk-text">class_id UUID REFERENCES classes</text>
        <text x="10" y="110" class="column-text">booking_date TIMESTAMP</text>
        <text x="10" y="130" class="column-text">status VARCHAR(20)</text>
        <text x="10" y="150" class="column-text">created_at TIMESTAMP</text>
    </g>
    
    <!-- Gym Access Logs Table -->
    <g transform="translate(800, 580)">
        <rect width="250" height="30" class="table-header" />
        <rect width="250" height="130" y="30" class="table-join" />
        <text x="125" y="20" class="table-title">public.gym_access_logs</text>
        <text x="10" y="50" class="pk-text">id UUID PRIMARY KEY</text>
        <text x="10" y="70" class="fk-text">profile_id UUID REFERENCES profiles</text>
        <text x="10" y="90" class="fk-text">gym_id UUID REFERENCES gyms</text>
        <text x="10" y="110" class="column-text">check_in TIMESTAMP</text>
        <text x="10" y="130" class="column-text">check_out TIMESTAMP</text>
        <text x="10" y="150" class="column-text">qr_code_used BOOLEAN</text>
    </g>
    
    <!-- Relationships -->
    <!-- auth.users to profiles -->
    <path d="M350,170 C380,170 420,170 450,170" class="connection" />
    
    <!-- profiles to subscriptions -->
    <path d="M450,205 C400,205 350,205 300,205 C250,205 225,300 225,350" class="connection" />
    
    <!-- subscription_plans to subscriptions -->
    <path d="M800,195 C750,195 700,195 650,195 C600,195 300,195 250,195 C200,195 175,300 175,350" class="connection" />
    
    <!-- profiles to class_bookings -->
    <path d="M575,290 C575,350 575,400 575,450 C575,500 575,550 575,580" class="connection" />
    
    <!-- profiles to gym_access_logs -->
    <path d="M700,205 C750,205 800,205 850,205 C900,205 925,400 925,580" class="connection" />
    
    <!-- classes to class_bookings -->
    <path d="M800,435 C750,435 700,435 650,435 C600,435 575,500 575,580" class="connection" />
    
    <!-- gyms to classes -->
    <path d="M700,400 C750,400 800,400 800,400" class="connection" />
    
    <!-- gyms to gym_access_logs -->
    <path d="M700,450 C750,450 800,450 850,450 C900,450 925,500 925,580" class="connection" />
    
    <!-- Legend -->
    <rect x="900" y="800" width="250" height="150" class="legend-box" />
    <text x="1025" y="820" class="legend-title">Legend</text>
    
    <rect x="920" y="835" width="20" height="15" class="table-auth" />
    <text x="1025" y="847" class="legend-text">Authentication Tables</text>
    
    <rect x="920" y="860" width="20" height="15" class="table-core" />
    <text x="1025" y="872" class="legend-text">Core Tables</text>
    
    <rect x="920" y="885" width="20" height="15" class="table-feature" />
    <text x="1025" y="897" class="legend-text">Feature Tables</text>
    
    <rect x="920" y="910" width="20" height="15" class="table-join" />
    <text x="1025" y="922" class="legend-text">Junction Tables</text>
    
    <text x="950" y="940" class="pk-text">Primary Key</text>
    <text x="1025" y="940" class="legend-text">Primary Key</text>
    
    <text x="950" y="960" class="fk-text">foreign_key</text>
    <text x="1025" y="960" class="legend-text">Foreign Key</text>
</svg>
