<?xml version="1.0" encoding="UTF-8" standalone="no"?>
<!DOCTYPE svg PUBLIC "-//W3C//DTD SVG 1.1//EN" "http://www.w3.org/Graphics/SVG/1.1/DTD/svg11.dtd">
<svg width="800" height="900" xmlns="http://www.w3.org/2000/svg" xmlns:xlink="http://www.w3.org/1999/xlink">
    <title>Gym Search Activity Diagram</title>
    <style>
        .title { font-family: Arial, sans-serif; font-size: 20px; font-weight: bold; fill: #212529; text-anchor: middle; }
        .node { fill: #f8f9fa; stroke: #343a40; stroke-width: 2; }
        .start-end { fill: #000000; stroke: #000000; stroke-width: 2; }
        .decision { fill: #f8f9fa; stroke: #343a40; stroke-width: 2; }
        .flow { stroke: #495057; stroke-width: 1.5; marker-end: url(#arrow); }
        .text { font-family: Arial, sans-serif; font-size: 14px; fill: #212529; text-anchor: middle; }
        .small-text { font-family: Arial, sans-serif; font-size: 12px; fill: #212529; text-anchor: middle; }
        .lane { fill: none; stroke: #adb5bd; stroke-width: 1; stroke-dasharray: 5,5; }
        .lane-title { font-family: Arial, sans-serif; font-size: 14px; fill: #6c757d; text-anchor: middle; }
        .fork-join { fill: #343a40; stroke: #343a40; stroke-width: 2; }
    </style>
    
    <defs>
        <marker id="arrow" markerWidth="10" markerHeight="10" refX="9" refY="3" orient="auto" markerUnits="strokeWidth">
            <path d="M0,0 L0,6 L9,3 z" fill="#495057" />
        </marker>
    </defs>
    
    <text x="400" y="30" class="title">Gym Search Activity</text>
    
    <!-- Swim Lanes -->
    <rect x="50" y="50" width="150" height="800" class="lane" />
    <text x="125" y="70" class="lane-title">User</text>
    
    <rect x="200" y="50" width="200" height="800" class="lane" />
    <text x="300" y="70" class="lane-title">Frontend</text>
    
    <rect x="400" y="50" width="200" height="800" class="lane" />
    <text x="500" y="70" class="lane-title">Supabase</text>
    
    <rect x="600" y="50" width="150" height="800" class="lane" />
    <text x="675" y="70" class="lane-title">Google Maps</text>
    
    <!-- Start Node -->
    <circle cx="125" cy="100" r="15" class="start-end" />
    
    <!-- Activity Nodes -->
    <rect x="75" y="150" width="100" height="60" rx="10" ry="10" class="node" />
    <text x="125" y="180" class="text">Navigate to Gyms</text>
    
    <rect x="250" y="150" width="100" height="60" rx="10" ry="10" class="node" />
    <text x="300" y="180" class="text">Initialize Gyms Page</text>
    
    <rect x="450" y="150" width="100" height="60" rx="10" ry="10" class="node" />
    <text x="500" y="180" class="text">Fetch All Gyms</text>
    
    <rect x="250" y="250" width="100" height="60" rx="10" ry="10" class="node" />
    <text x="300" y="280" class="text">Display Gyms List</text>
    
    <rect x="75" y="350" width="100" height="60" rx="10" ry="10" class="node" />
    <text x="125" y="380" class="text">Apply Filters</text>
    
    <rect x="250" y="350" width="100" height="60" rx="10" ry="10" class="node" />
    <text x="300" y="380" class="text">Process Filters</text>
    
    <rect x="250" y="450" width="100" height="60" rx="10" ry="10" class="node" />
    <text x="300" y="480" class="text">Update Gyms Display</text>
    
    <rect x="75" y="550" width="100" height="60" rx="10" ry="10" class="node" />
    <text x="125" y="580" class="text">Toggle Map View</text>
    
    <!-- Fork Node -->
    <rect x="275" y="650" width="50" height="10" class="fork-join" />
    
    <rect x="250" y="700" width="100" height="60" rx="10" ry="10" class="node" />
    <text x="300" y="730" class="text">Display List View</text>
    
    <rect x="450" y="700" width="100" height="60" rx="10" ry="10" class="node" />
    <text x="500" y="730" class="text">Initialize Map</text>
    
    <rect x="625" y="700" width="100" height="60" rx="10" ry="10" class="node" />
    <text x="675" y="730" class="text">Load Map with Markers</text>
    
    <!-- Join Node -->
    <rect x="275" y="800" width="50" height="10" class="fork-join" />
    
    <!-- End Node -->
    <circle cx="125" cy="830" r="15" stroke-width="3" class="start-end" />
    <circle cx="125" cy="830" r="10" fill="white" />
    
    <!-- Flow Arrows -->
    <line x1="125" y1="115" x2="125" y2="150" class="flow" />
    <line x1="175" y1="180" x2="250" y2="180" class="flow" />
    <line x1="350" y1="180" x2="450" y2="180" class="flow" />
    <line x1="500" y1="210" x2="500" y2="230" class="flow" />
    <line x1="500" y1="230" x2="300" y2="230" class="flow" />
    <line x1="300" y1="230" x2="300" y2="250" class="flow" />
    <line x1="300" y1="310" x2="300" y2="330" class="flow" />
    <line x1="300" y1="330" x2="125" y2="330" class="flow" />
    <line x1="125" y1="330" x2="125" y2="350" class="flow" />
    <line x1="175" y1="380" x2="250" y2="380" class="flow" />
    <line x1="300" y1="410" x2="300" y2="450" class="flow" />
    <line x1="300" y1="510" x2="300" y2="530" class="flow" />
    <line x1="300" y1="530" x2="125" y2="530" class="flow" />
    <line x1="125" y1="530" x2="125" y2="550" class="flow" />
    <line x1="175" y1="580" x2="250" y2="580" class="flow" />
    <line x1="300" y1="580" x2="300" y2="650" class="flow" />
    
    <!-- Fork Flows -->
    <line x1="275" y1="655" x2="250" y2="655" class="flow" />
    <line x1="250" y1="655" x2="250" y2="700" class="flow" />
    
    <line x1="325" y1="655" x2="350" y2="655" class="flow" />
    <line x1="350" y1="655" x2="350" y2="680" class="flow" />
    <line x1="350" y1="680" x2="500" y2="680" class="flow" />
    <line x1="500" y1="680" x2="500" y2="700" class="flow" />
    
    <line x1="550" y1="730" x2="625" y2="730" class="flow" />
    
    <!-- Join Flows -->
    <line x1="300" y1="760" x2="300" y2="800" class="flow" />
    <line x1="675" y1="760" x2="675" y2="780" class="flow" />
    <line x1="675" y1="780" x2="325" y2="780" class="flow" />
    <line x1="325" y1="780" x2="325" y2="800" class="flow" />
    
    <!-- Final Flow -->
    <line x1="300" y1="810" x2="300" y2="830" class="flow" />
    <line x1="300" y1="830" x2="140" y2="830" class="flow" />
</svg>
