<?xml version="1.0" encoding="UTF-8" standalone="no"?>
<!DOCTYPE svg PUBLIC "-//W3C//DTD SVG 1.1//EN" "http://www.w3.org/Graphics/SVG/1.1/DTD/svg11.dtd">
<svg width="900" height="700" xmlns="http://www.w3.org/2000/svg" xmlns:xlink="http://www.w3.org/1999/xlink">
    <title>User Registration Sequence Diagram</title>
    <style>
        .actor-box { fill: #f8f9fa; stroke: #343a40; stroke-width: 2; }
        .actor-text { font-family: Arial, sans-serif; font-size: 14px; fill: #212529; text-anchor: middle; }
        .lifeline { stroke: #adb5bd; stroke-width: 2; stroke-dasharray: 5,5; }
        .activation { fill: #e9ecef; stroke: #495057; stroke-width: 2; }
        .message { stroke: #495057; stroke-width: 1.5; marker-end: url(#arrow); }
        .return-message { stroke: #495057; stroke-width: 1.5; stroke-dasharray: 5,5; marker-end: url(#arrow); }
        .message-text { font-family: Arial, sans-serif; font-size: 12px; fill: #212529; }
        .title { font-family: Arial, sans-serif; font-size: 20px; font-weight: bold; fill: #212529; text-anchor: middle; }
    </style>
    
    <defs>
        <marker id="arrow" markerWidth="10" markerHeight="10" refX="9" refY="3" orient="auto" markerUnits="strokeWidth">
            <path d="M0,0 L0,6 L9,3 z" fill="#495057" />
        </marker>
    </defs>
    
    <text x="450" y="30" class="title">User Registration Sequence</text>
    
    <!-- Actors -->
    <rect x="50" y="50" width="100" height="50" class="actor-box" />
    <text x="100" y="80" class="actor-text">User</text>
    <line x1="100" y1="100" x2="100" y2="650" class="lifeline" />
    
    <rect x="250" y="50" width="100" height="50" class="actor-box" />
    <text x="300" y="80" class="actor-text">Register Page</text>
    <line x1="300" y1="100" x2="300" y2="650" class="lifeline" />
    
    <rect x="450" y="50" width="100" height="50" class="actor-box" />
    <text x="500" y="80" class="actor-text">Supabase Client</text>
    <line x1="500" y1="100" x2="500" y2="650" class="lifeline" />
    
    <rect x="650" y="50" width="100" height="50" class="actor-box" />
    <text x="700" y="80" class="actor-text">Supabase Auth</text>
    <line x1="700" y1="100" x2="700" y2="650" class="lifeline" />
    
    <rect x="800" y="50" width="100" height="50" class="actor-box" />
    <text x="850" y="80" class="actor-text">Supabase DB</text>
    <line x1="850" y1="100" x2="850" y2="650" class="lifeline" />
    
    <!-- Activation Boxes -->
    <rect x="95" y="150" width="10" height="450" class="activation" />
    <rect x="295" y="150" width="10" height="450" class="activation" />
    <rect x="495" y="200" width="10" height="350" class="activation" />
    <rect x="695" y="250" width="10" height="150" class="activation" />
    <rect x="845" y="450" width="10" height="100" class="activation" />
    
    <!-- Messages -->
    <line x1="105" y1="150" x2="295" y2="150" class="message" />
    <text x="200" y="140" class="message-text">Fill registration form</text>
    
    <line x1="305" y1="200" x2="495" y2="200" class="message" />
    <text x="400" y="190" class="message-text">Submit registration data</text>
    
    <line x1="505" y1="250" x2="695" y2="250" class="message" />
    <text x="600" y="240" class="message-text">auth.signUp(email, password)</text>
    
    <line x1="695" y1="400" x2="505" y2="400" class="return-message" />
    <text x="600" y="390" class="message-text">Return user session</text>
    
    <line x1="505" y1="450" x2="845" y2="450" class="message" />
    <text x="675" y="440" class="message-text">Create user profile in users table</text>
    
    <line x1="845" y1="550" x2="505" y2="550" class="return-message" />
    <text x="675" y="540" class="message-text">Return profile data</text>
    
    <line x1="495" y1="600" x2="305" y2="600" class="return-message" />
    <text x="400" y="590" class="message-text">Registration successful</text>
    
    <!-- Final Actor Boxes -->
    <rect x="50" y="650" width="100" height="50" class="actor-box" />
    <text x="100" y="680" class="actor-text">User</text>
    
    <rect x="250" y="650" width="100" height="50" class="actor-box" />
    <text x="300" y="680" class="actor-text">Register Page</text>
    
    <rect x="450" y="650" width="100" height="50" class="actor-box" />
    <text x="500" y="680" class="actor-text">Supabase Client</text>
    
    <rect x="650" y="650" width="100" height="50" class="actor-box" />
    <text x="700" y="680" class="actor-text">Supabase Auth</text>
    
    <rect x="800" y="650" width="100" height="50" class="actor-box" />
    <text x="850" y="680" class="actor-text">Supabase DB</text>
</svg>
