<?xml version="1.0" encoding="UTF-8" standalone="no"?>
<!DOCTYPE svg PUBLIC "-//W3C//DTD SVG 1.1//EN" "http://www.w3.org/Graphics/SVG/1.1/DTD/svg11.dtd">
<svg width="800" height="600" xmlns="http://www.w3.org/2000/svg" xmlns:xlink="http://www.w3.org/1999/xlink">
    <title>User Logout Activity Diagram</title>
    <style>
        .title { font-family: Arial, sans-serif; font-size: 20px; font-weight: bold; fill: #212529; text-anchor: middle; }
        .node { fill: #f8f9fa; stroke: #343a40; stroke-width: 2; }
        .start-end { fill: #000000; stroke: #000000; stroke-width: 2; }
        .decision { fill: #f8f9fa; stroke: #343a40; stroke-width: 2; }
        .flow { stroke: #495057; stroke-width: 1.5; marker-end: url(#arrow); }
        .text { font-family: Arial, sans-serif; font-size: 14px; fill: #212529; text-anchor: middle; }
        .small-text { font-family: Arial, sans-serif; font-size: 12px; fill: #212529; text-anchor: middle; }
        .lane { fill: none; stroke: #adb5bd; stroke-width: 1; stroke-dasharray: 5,5; }
        .lane-title { font-family: Arial, sans-serif; font-size: 14px; fill: #6c757d; text-anchor: middle; }
    </style>
    
    <defs>
        <marker id="arrow" markerWidth="10" markerHeight="10" refX="9" refY="3" orient="auto" markerUnits="strokeWidth">
            <path d="M0,0 L0,6 L9,3 z" fill="#495057" />
        </marker>
    </defs>
    
    <text x="400" y="30" class="title">User Logout Activity</text>
    
    <!-- Swim Lanes -->
    <rect x="50" y="50" width="200" height="500" class="lane" />
    <text x="150" y="70" class="lane-title">User</text>
    
    <rect x="250" y="50" width="200" height="500" class="lane" />
    <text x="350" y="70" class="lane-title">Frontend</text>
    
    <rect x="450" y="50" width="300" height="500" class="lane" />
    <text x="600" y="70" class="lane-title">Supabase</text>
    
    <!-- Start Node -->
    <circle cx="150" cy="100" r="15" class="start-end" />
    
    <!-- Activity Nodes -->
    <rect x="100" y="150" width="100" height="60" rx="10" ry="10" class="node" />
    <text x="150" y="180" class="text">Click Logout</text>
    
    <rect x="300" y="150" width="100" height="60" rx="10" ry="10" class="node" />
    <text x="350" y="180" class="text">Process Logout</text>
    
    <rect x="550" y="150" width="100" height="60" rx="10" ry="10" class="node" />
    <text x="600" y="180" class="text">Sign Out User</text>
    
    <rect x="550" y="250" width="100" height="60" rx="10" ry="10" class="node" />
    <text x="600" y="280" class="text">Clear Session</text>
    
    <rect x="300" y="250" width="100" height="60" rx="10" ry="10" class="node" />
    <text x="350" y="280" class="text">Clear Local State</text>
    
    <rect x="300" y="350" width="100" height="60" rx="10" ry="10" class="node" />
    <text x="350" y="380" class="text">Redirect to Login</text>
    
    <!-- End Node -->
    <circle cx="150" cy="450" r="15" stroke-width="3" class="start-end" />
    <circle cx="150" cy="450" r="10" fill="white" />
    
    <!-- Flow Arrows -->
    <line x1="150" y1="115" x2="150" y2="150" class="flow" />
    <line x1="200" y1="180" x2="300" y2="180" class="flow" />
    <line x1="400" y1="180" x2="550" y2="180" class="flow" />
    <line x1="600" y1="210" x2="600" y2="250" class="flow" />
    <line x1="550" y1="280" x2="400" y2="280" class="flow" />
    <line x1="350" y1="310" x2="350" y2="350" class="flow" />
    <line x1="300" y1="380" x2="150" y2="380" class="flow" />
    <line x1="150" y1="380" x2="150" y2="435" class="flow" />
</svg>
