<?xml version="1.0" encoding="UTF-8" standalone="no"?>
<!DOCTYPE svg PUBLIC "-//W3C//DTD SVG 1.1//EN" "http://www.w3.org/Graphics/SVG/1.1/DTD/svg11.dtd">
<svg width="800" height="600" xmlns="http://www.w3.org/2000/svg" xmlns:xlink="http://www.w3.org/1999/xlink">
    <title>User Login Sequence Diagram</title>
    <style>
        .actor-box { fill: #f8f9fa; stroke: #343a40; stroke-width: 2; }
        .actor-text { font-family: Arial, sans-serif; font-size: 14px; fill: #212529; text-anchor: middle; }
        .lifeline { stroke: #adb5bd; stroke-width: 2; stroke-dasharray: 5,5; }
        .activation { fill: #e9ecef; stroke: #495057; stroke-width: 2; }
        .message { stroke: #495057; stroke-width: 1.5; marker-end: url(#arrow); }
        .return-message { stroke: #495057; stroke-width: 1.5; stroke-dasharray: 5,5; marker-end: url(#arrow); }
        .message-text { font-family: Arial, sans-serif; font-size: 12px; fill: #212529; }
        .title { font-family: Arial, sans-serif; font-size: 20px; font-weight: bold; fill: #212529; text-anchor: middle; }
        .note { fill: #fff3cd; stroke: #856404; stroke-width: 1; }
        .note-text { font-family: Arial, sans-serif; font-size: 12px; fill: #856404; }
    </style>
    
    <defs>
        <marker id="arrow" markerWidth="10" markerHeight="10" refX="9" refY="3" orient="auto" markerUnits="strokeWidth">
            <path d="M0,0 L0,6 L9,3 z" fill="#495057" />
        </marker>
    </defs>
    
    <text x="400" y="30" class="title">User Login Sequence</text>
    
    <!-- Actors -->
    <rect x="50" y="50" width="100" height="50" class="actor-box" />
    <text x="100" y="80" class="actor-text">User</text>
    <line x1="100" y1="100" x2="100" y2="550" class="lifeline" />
    
    <rect x="250" y="50" width="100" height="50" class="actor-box" />
    <text x="300" y="80" class="actor-text">Login Page</text>
    <line x1="300" y1="100" x2="300" y2="550" class="lifeline" />
    
    <rect x="450" y="50" width="100" height="50" class="actor-box" />
    <text x="500" y="80" class="actor-text">Supabase Client</text>
    <line x1="500" y1="100" x2="500" y2="550" class="lifeline" />
    
    <rect x="650" y="50" width="100" height="50" class="actor-box" />
    <text x="700" y="80" class="actor-text">Supabase Auth</text>
    <line x1="700" y1="100" x2="700" y2="550" class="lifeline" />
    
    <!-- Activation Boxes -->
    <rect x="95" y="150" width="10" height="350" class="activation" />
    <rect x="295" y="150" width="10" height="350" class="activation" />
    <rect x="495" y="200" width="10" height="250" class="activation" />
    <rect x="695" y="250" width="10" height="150" class="activation" />
    
    <!-- Messages -->
    <line x1="105" y1="150" x2="295" y2="150" class="message" />
    <text x="200" y="140" class="message-text">Enter email and password</text>
    
    <line x1="305" y1="200" x2="495" y2="200" class="message" />
    <text x="400" y="190" class="message-text">Submit login credentials</text>
    
    <line x1="505" y1="250" x2="695" y2="250" class="message" />
    <text x="600" y="240" class="message-text">auth.signIn(email, password)</text>
    
    <!-- Note -->
    <rect x="600" y="280" width="180" height="50" class="note" />
    <text x="610" y="305" class="note-text">Verify credentials and</text>
    <text x="610" y="320" class="note-text">generate session token</text>
    
    <line x1="695" y1="400" x2="505" y2="400" class="return-message" />
    <text x="600" y="390" class="message-text">Return user session</text>
    
    <line x1="495" y1="450" x2="305" y2="450" class="return-message" />
    <text x="400" y="440" class="message-text">Login successful</text>
    
    <line x1="305" y1="500" x2="105" y2="500" class="return-message" />
    <text x="200" y="490" class="message-text">Redirect to dashboard</text>
    
    <!-- Final Actor Boxes -->
    <rect x="50" y="550" width="100" height="50" class="actor-box" />
    <text x="100" y="580" class="actor-text">User</text>
    
    <rect x="250" y="550" width="100" height="50" class="actor-box" />
    <text x="300" y="580" class="actor-text">Login Page</text>
    
    <rect x="450" y="550" width="100" height="50" class="actor-box" />
    <text x="500" y="580" class="actor-text">Supabase Client</text>
    
    <rect x="650" y="550" width="100" height="50" class="actor-box" />
    <text x="700" y="580" class="actor-text">Supabase Auth</text>
</svg>
