<?xml version="1.0" encoding="UTF-8" standalone="no"?>
<!DOCTYPE svg PUBLIC "-//W3C//DTD SVG 1.1//EN" "http://www.w3.org/Graphics/SVG/1.1/DTD/svg11.dtd">
<svg width="800" height="900" xmlns="http://www.w3.org/2000/svg" xmlns:xlink="http://www.w3.org/1999/xlink">
    <title>User Registration Activity Diagram</title>
    <style>
        .title { font-family: Arial, sans-serif; font-size: 20px; font-weight: bold; fill: #212529; text-anchor: middle; }
        .node { fill: #f8f9fa; stroke: #343a40; stroke-width: 2; }
        .start-end { fill: #000000; stroke: #000000; stroke-width: 2; }
        .decision { fill: #f8f9fa; stroke: #343a40; stroke-width: 2; }
        .flow { stroke: #495057; stroke-width: 1.5; marker-end: url(#arrow); }
        .text { font-family: Arial, sans-serif; font-size: 14px; fill: #212529; text-anchor: middle; }
        .small-text { font-family: Arial, sans-serif; font-size: 12px; fill: #212529; text-anchor: middle; }
        .lane { fill: none; stroke: #adb5bd; stroke-width: 1; stroke-dasharray: 5,5; }
        .lane-title { font-family: Arial, sans-serif; font-size: 14px; fill: #6c757d; text-anchor: middle; }
    </style>
    
    <defs>
        <marker id="arrow" markerWidth="10" markerHeight="10" refX="9" refY="3" orient="auto" markerUnits="strokeWidth">
            <path d="M0,0 L0,6 L9,3 z" fill="#495057" />
        </marker>
    </defs>
    
    <text x="400" y="30" class="title">User Registration Activity</text>
    
    <!-- Swim Lanes -->
    <rect x="50" y="50" width="200" height="800" class="lane" />
    <text x="150" y="70" class="lane-title">User</text>
    
    <rect x="250" y="50" width="200" height="800" class="lane" />
    <text x="350" y="70" class="lane-title">Frontend</text>
    
    <rect x="450" y="50" width="300" height="800" class="lane" />
    <text x="600" y="70" class="lane-title">Supabase</text>
    
    <!-- Start Node -->
    <circle cx="150" cy="100" r="15" class="start-end" />
    
    <!-- Activity Nodes -->
    <rect x="100" y="150" width="100" height="60" rx="10" ry="10" class="node" />
    <text x="150" y="180" class="text">Navigate to Register</text>
    
    <rect x="100" y="250" width="100" height="60" rx="10" ry="10" class="node" />
    <text x="150" y="280" class="text">Fill Registration Form</text>
    
    <rect x="300" y="250" width="100" height="60" rx="10" ry="10" class="node" />
    <text x="350" y="280" class="text">Validate Form</text>
    
    <!-- Decision Node -->
    <polygon points="350,350 380,380 350,410 320,380" class="decision" />
    <text x="350" y="440" class="small-text">Form Valid?</text>
    
    <rect x="300" y="480" width="100" height="60" rx="10" ry="10" class="node" />
    <text x="350" y="510" class="text">Submit Registration</text>
    
    <rect x="500" y="480" width="200" height="60" rx="10" ry="10" class="node" />
    <text x="600" y="510" class="text">Create Auth User</text>
    
    <!-- Decision Node -->
    <polygon points="600,580 630,610 600,640 570,610" class="decision" />
    <text x="600" y="670" class="small-text">Auth Success?</text>
    
    <rect x="500" y="700" width="200" height="60" rx="10" ry="10" class="node" />
    <text x="600" y="730" class="text">Create User Profile</text>
    
    <rect x="300" y="700" width="100" height="60" rx="10" ry="10" class="node" />
    <text x="350" y="730" class="text">Redirect to Dashboard</text>
    
    <!-- End Node -->
    <circle cx="150" cy="800" r="15" stroke-width="3" class="start-end" />
    <circle cx="150" cy="800" r="10" fill="white" />
    
    <!-- Error Node -->
    <rect x="100" y="480" width="100" height="60" rx="10" ry="10" class="node" />
    <text x="150" y="510" class="text">Display Error</text>
    
    <!-- Flow Arrows -->
    <line x1="150" y1="115" x2="150" y2="150" class="flow" />
    <line x1="150" y1="210" x2="150" y2="250" class="flow" />
    <line x1="200" y1="280" x2="300" y2="280" class="flow" />
    <line x1="350" y1="310" x2="350" y2="350" class="flow" />
    
    <!-- Decision Flows -->
    <line x1="350" y1="410" x2="350" y2="480" class="flow" />
    <text x="370" y="445" class="small-text">Yes</text>
    
    <line x1="320" y1="380" x2="150" y2="380" class="flow" />
    <line x1="150" y1="380" x2="150" y2="480" class="flow" />
    <text x="230" y="370" class="small-text">No</text>
    
    <line x1="400" y1="510" x2="500" y2="510" class="flow" />
    <line x1="600" y1="540" x2="600" y2="580" class="flow" />
    
    <!-- Auth Decision Flows -->
    <line x1="600" y1="640" x2="600" y2="700" class="flow" />
    <text x="620" y="670" class="small-text">Yes</text>
    
    <line x1="570" y1="610" x2="150" y2="610" class="flow" />
    <line x1="150" y1="610" x2="150" y2="480" class="flow" />
    <text x="350" y="600" class="small-text">No</text>
    
    <line x1="500" y1="730" x2="400" y2="730" class="flow" />
    <line x1="300" y1="730" x2="150" y2="730" class="flow" />
    <line x1="150" y1="730" x2="150" y2="785" class="flow" />
    
    <!-- Return Flow from Error to Form -->
    <line x1="150" y1="540" x2="150" y2="570" class="flow" />
    <line x1="150" y1="570" x2="80" y2="570" class="flow" />
    <line x1="80" y1="570" x2="80" y2="280" class="flow" />
    <line x1="80" y1="280" x2="100" y2="280" class="flow" />
</svg>
